<svg xmlns="http://www.w3.org/2000/svg" xmlns:xlink="http://www.w3.org/1999/xlink" width="512" zoomAndPan="magnify" viewBox="0 0 384 383.999986" height="512" preserveAspectRatio="xMidYMid meet" version="1.0"><path fill="#000000" d="M 384 230.871094 C 373.398438 202.601562 352.195312 189.636719 352.195312 189.636719 L 375.753906 169.617188 C 359.261719 137.8125 329.8125 133.101562 329.8125 133.101562 L 343.949219 109.542969 C 316.859375 89.523438 275.628906 95.414062 275.628906 95.414062 L 289.761719 74.210938 C 242.652344 60.078125 213.203125 77.746094 213.203125 77.746094 L 217.910156 53.007812 C 177.859375 57.71875 153.128906 87.167969 153.128906 87.167969 L 151.949219 63.609375 C 100.117188 87.167969 72.9375 149.84375 48.289062 170.796875 C 24.734375 190.820312 0 197.890625 0 197.890625 L 8.246094 256.789062 C 22.378906 266.203125 103.660156 281.519531 103.660156 281.519531 L 117.789062 330.992188 L 154.304688 330.992188 L 162.550781 290.941406 L 235.578125 290.941406 L 244.414062 330.992188 L 283.875 330.992188 L 293.296875 290.941406 C 293.296875 290.941406 358.085938 282.703125 362.796875 279.167969 C 360.441406 260.324219 356.90625 241.472656 356.90625 241.472656 Z M 384 230.871094 " fill-opacity="1" fill-rule="nonzero"/></svg>