<svg xmlns="http://www.w3.org/2000/svg" xmlns:xlink="http://www.w3.org/1999/xlink" width="512" zoomAndPan="magnify" viewBox="0 0 384 383.999986" height="512" preserveAspectRatio="xMidYMid meet" version="1.0"><path fill="#000000" d="M 378.226562 146.691406 C 370.261719 141.921875 355.945312 114.058594 352.757812 110.875 C 349.570312 107.683594 331.261719 100.519531 331.261719 100.519531 L 320.914062 67.882812 C 301.007812 70.273438 289.078125 102.109375 288.28125 104.496094 C 288.28125 104.496094 286.285156 159.820312 197.925781 138.328125 C 134.597656 122.925781 96.511719 108.023438 64.523438 138.058594 C 62.523438 134.625 61.15625 131.132812 60.15625 127.367188 C 58.375 120.570312 57.96875 112.773438 57.972656 103.886719 C 57.972656 99.53125 58.054688 94.941406 58.0625 90.132812 C 58.054688 80.054688 57.691406 68.945312 55.027344 57.121094 C 52.386719 45.289062 47.351562 32.808594 38.507812 20.371094 C 34.695312 14.996094 27.238281 13.726562 21.859375 17.546875 C 16.484375 21.367188 15.214844 28.820312 19.035156 34.199219 C 26.015625 44.054688 29.65625 53.222656 31.734375 62.359375 C 33.789062 71.484375 34.1875 80.660156 34.183594 90.132812 C 34.183594 94.648438 34.09375 99.234375 34.09375 103.886719 C 34.105469 113.371094 34.421875 123.234375 37.039062 133.375 C 39.101562 141.425781 42.832031 149.5625 48.671875 157.15625 C 23.949219 196.09375 37.527344 237.4375 37.527344 237.4375 L 11.957031 278.117188 C 11.496094 278.851562 11.183594 279.667969 11.023438 280.511719 L 0.109375 340.554688 C -0.371094 343.195312 0.757812 345.863281 2.972656 347.367188 L 33.707031 368.191406 C 34.363281 368.640625 35.179688 368.769531 35.945312 368.558594 C 36.714844 368.355469 37.339844 367.8125 37.675781 367.097656 L 43.917969 353.730469 C 44.382812 352.726562 44.195312 351.539062 43.445312 350.730469 L 35.398438 342.144531 C 33.761719 340.402344 33.167969 337.917969 33.835938 335.617188 L 47.21875 289.84375 C 47.652344 288.382812 48.554688 287.109375 49.792969 286.230469 L 67.78125 273.4375 C 70.222656 271.6875 73.527344 271.769531 75.886719 273.625 C 78.246094 275.476562 79.101562 278.664062 77.992188 281.453125 L 70.058594 301.394531 C 69.140625 303.683594 69.546875 306.289062 71.109375 308.1875 L 116.332031 363.210938 L 150.246094 363.210938 C 151.742188 363.210938 152.957031 361.996094 152.957031 360.507812 L 152.957031 343.628906 C 152.957031 342.132812 151.742188 340.917969 150.246094 340.917969 L 139.519531 340.917969 C 137.011719 340.917969 134.710938 339.527344 133.53125 337.316406 L 115.167969 306.527344 C 113.9375 304.199219 114.171875 301.375 115.753906 299.28125 L 132.214844 277.53125 C 133.496094 275.847656 135.492188 274.851562 137.609375 274.851562 L 183.507812 274.851562 C 185.664062 274.851562 187.691406 275.882812 188.964844 277.625 C 190.238281 279.367188 190.609375 281.609375 189.964844 283.671875 L 175.167969 330.289062 C 174.699219 331.757812 174.746094 333.347656 175.304688 334.785156 L 184.792969 359.234375 L 214.246094 359.234375 L 214.246094 352.867188 L 209.378906 337.554688 C 208.921875 336.125 208.957031 334.582031 209.476562 333.167969 L 229.332031 279.28125 C 230.316406 276.617188 232.851562 274.851562 235.6875 274.851562 L 255.945312 274.851562 C 257.78125 274.851562 259.542969 275.601562 260.820312 276.933594 L 316.929688 354.457031 C 316.929688 354.457031 345.585938 354.457031 355.140625 354.457031 C 364.695312 354.457031 360.996094 335.394531 351.960938 334.550781 C 334.839844 332.960938 312.957031 285.203125 303.402344 268.484375 C 293.847656 251.769531 321.902344 200.007812 343.203125 197.644531 C 364.695312 195.253906 375.839844 186.492188 379.027344 174.550781 C 385.390625 167.390625 386.191406 151.46875 378.226562 146.691406 Z M 378.226562 146.691406 " fill-opacity="1" fill-rule="nonzero"/></svg>