<svg xmlns="http://www.w3.org/2000/svg" xmlns:xlink="http://www.w3.org/1999/xlink" width="512" zoomAndPan="magnify" viewBox="0 0 384 383.999986" height="512" preserveAspectRatio="xMidYMid meet" version="1.0"><path fill="#000000" d="M 353.746094 222.535156 C 347.132812 182.832031 319.335938 159.003906 278.304688 159.003906 C 230.785156 150.363281 167.136719 169.59375 143.308594 151.066406 C 119.488281 132.535156 127.429688 95.476562 130.078125 69.007812 C 132.726562 42.539062 116.839844 33.273438 116.839844 33.273438 C 116.839844 33.273438 116.839844 2.832031 103.601562 0.1875 C 90.371094 -2.460938 87.726562 24.007812 87.726562 24.007812 C 87.726562 24.007812 66.546875 29.300781 58.609375 39.890625 C 50.667969 50.476562 29.488281 53.121094 29.488281 69.007812 C 29.488281 84.890625 63.90625 78.136719 63.90625 104.742188 C 63.90625 140.476562 58.609375 242.386719 111.546875 276.796875 L 135.375 384 L 169.777344 384 L 171.101562 288.710938 L 269.046875 288.710938 L 273.015625 384 L 312.714844 384 C 312.714844 384 328.601562 291.355469 333.894531 262.234375 C 334.851562 256.992188 335.535156 250.613281 335.695312 243.644531 C 342.613281 251.140625 358.128906 248.835938 353.746094 222.535156 Z M 353.746094 222.535156 " fill-opacity="1" fill-rule="nonzero"/></svg>