<svg xmlns="http://www.w3.org/2000/svg" xmlns:xlink="http://www.w3.org/1999/xlink" width="512" zoomAndPan="magnify" viewBox="0 0 384 383.999986" height="512" preserveAspectRatio="xMidYMid meet" version="1.0"><path fill="#000000" d="M 321.476562 204.863281 C 299.316406 106.71875 224.40625 94.078125 183.761719 108.304688 C 152.855469 119.117188 141.5625 146.507812 129.261719 138.972656 C 117.535156 121.960938 132.972656 89.234375 144.527344 63.558594 C 158.679688 32.121094 145.089844 1.679688 111.929688 0.046875 C 99.25 -0.582031 80.101562 4.859375 70.074219 31.574219 C 68.441406 35.925781 60.289062 42.996094 57.570312 51.144531 C 55.277344 58.027344 57.023438 77.78125 62.464844 76.695312 C 67.898438 75.605469 71.707031 63.109375 76.597656 58.753906 C 81.488281 54.410156 89.644531 47.34375 98.882812 48.429688 C 108.125 49.511719 114.402344 53.140625 111.53125 63.558594 C 104.710938 88.367188 81.902344 114.734375 86.617188 158.503906 C 91.664062 205.371094 130.382812 223.816406 166.074219 223.816406 L 190.808594 225.78125 L 193.628906 293.316406 L 164.285156 366.660156 L 142.757812 368.097656 C 138.371094 368.390625 135.054688 372.1875 135.34375 376.570312 C 135.640625 380.953125 139.433594 384.273438 143.816406 383.984375 L 170.34375 382.214844 C 173.40625 382.007812 176.0625 380.082031 177.203125 377.226562 L 209.039062 297.640625 C 209.453125 296.609375 209.648438 295.464844 209.601562 294.355469 L 206.796875 227.046875 L 227.148438 228.664062 L 270.25 282.214844 L 284.777344 358.082031 L 269.886719 367.558594 C 266.183594 369.914062 265.089844 374.839844 267.449219 378.546875 C 269.808594 382.253906 274.726562 383.347656 278.4375 380.988281 L 297.886719 368.609375 C 300.644531 366.855469 302.042969 363.605469 301.433594 360.398438 L 285.515625 277.273438 C 285.265625 275.996094 284.710938 274.796875 283.898438 273.78125 L 248.976562 230.394531 L 322.5 236.230469 C 324.144531 236.601562 325.4375 236.722656 326.230469 236.523438 L 326.726562 236.164062 C 327.171875 235.804688 327.375 235.195312 327.3125 234.34375 C 327.726562 231.207031 327.082031 223.546875 321.476562 204.863281 Z M 321.476562 204.863281 " fill-opacity="1" fill-rule="nonzero"/></svg>