<svg xmlns="http://www.w3.org/2000/svg" xmlns:xlink="http://www.w3.org/1999/xlink" width="512" zoomAndPan="magnify" viewBox="0 0 384 383.999986" height="512" preserveAspectRatio="xMidYMid meet" version="1.0"><path fill="#000000" d="M 384 167.652344 C 384 121.558594 346.671875 84.203125 300.550781 84.203125 C 291.726562 84.203125 283.359375 85.9375 275.429688 88.4375 C 275.210938 42.492188 238.007812 5.3125 191.988281 5.3125 C 146 5.3125 108.742188 42.492188 108.570312 88.4375 C 100.640625 85.9375 92.273438 84.203125 83.449219 84.203125 C 37.332031 84.203125 0 121.558594 0 167.652344 C 0 204.582031 24.128906 235.511719 57.398438 246.492188 C 47.429688 260.257812 41.441406 276.984375 41.441406 295.230469 C 41.441406 341.328125 78.773438 378.6875 124.882812 378.6875 C 152.527344 378.6875 176.800781 365.15625 191.988281 344.453125 C 207.203125 365.15625 231.472656 378.6875 259.089844 378.6875 C 305.230469 378.6875 342.535156 341.328125 342.535156 295.230469 C 342.535156 276.984375 336.542969 260.257812 326.601562 246.492188 C 359.871094 235.511719 384 204.585938 384 167.652344 Z M 191.988281 253.074219 C 168.011719 253.074219 148.542969 233.636719 148.542969 209.660156 C 148.542969 185.671875 168.011719 166.238281 191.988281 166.238281 C 215.988281 166.238281 235.433594 185.671875 235.433594 209.660156 C 235.433594 233.636719 215.988281 253.074219 191.988281 253.074219 Z M 191.988281 253.074219 " fill-opacity="1" fill-rule="nonzero"/></svg>