<svg xmlns="http://www.w3.org/2000/svg" xmlns:xlink="http://www.w3.org/1999/xlink" width="512" zoomAndPan="magnify" viewBox="0 0 384 383.999986" height="512" preserveAspectRatio="xMidYMid meet" version="1.0"><path fill="#000000" d="M 371.671875 102.839844 C 367.019531 102.839844 362.355469 100.976562 353.296875 100.566406 C 324.175781 60.933594 273 38.925781 220.605469 42.570312 C 170.089844 46.109375 140.859375 60.371094 118.023438 77.890625 C 85.980469 54.875 48.71875 59.28125 48.71875 59.28125 L 70.265625 120.324219 C 52.699219 134.914062 31.886719 147.898438 0 155.316406 L 30.621094 242.996094 C 30.621094 242.996094 61.828125 264.054688 105.351562 282.757812 L 127.347656 341.820312 L 175.371094 341.820312 L 175.371094 305.714844 C 190.335938 308.914062 205.582031 310.941406 220.605469 311.210938 C 240.914062 311.5625 261.035156 308.445312 279.761719 302.269531 L 279.761719 341.820312 L 327.789062 341.820312 L 366.425781 229.367188 C 373.75 213.710938 377.898438 196.15625 377.898438 176.890625 C 377.898438 160.71875 375.132812 145.660156 370.105469 131.914062 C 371.605469 130.507812 373.46875 129.03125 375.847656 127.496094 C 390.457031 118.097656 383.160156 102.839844 371.671875 102.839844 Z M 371.671875 102.839844 " fill-opacity="1" fill-rule="nonzero"/></svg>